<svg width="977" height="430" fill="none" xmlns="http://www.w3.org/2000/svg"><path d="M511.5 136.1S613.324-20.968 719.339 33.8c106.014 54.768-242.6 124.246-67.855 19.73C826.229-50.987 976.398 33.679 976.398 33.679M494 179.5c-167 0-516.194 6.994-370-70.5 133-70.5-46.45 241.054-46.45 241.054m477.087-186.311s174.379-48.728 239.745 31.819M361.5 52.5c48.167-9.667 144.5-1.8 144.5 107m153.904-58.562c-40.465-9.568-125.691-26.973-83.453-47.415C614.876 34.926 544 140.503 544 140.503M392 370c-5-49 6-61 47-57s72-42 60-77c-6.171-18 3.333-51 17-59m-4.158-9s-122.488 123.843-118.514 68.254c3.973-55.588-92.646 34.012-92.646 34.012L511.842 168zm10.234 14.071s234.835 143.342 158.677 26.387c-35.068-45.952-115.681 221.185-115.681 221.185l-42.996-247.572zm0 30.353s237.32 147.2 415.754 116.919L522.076 212.424zm-15.653-44.369S215.104 86.32.761 13.323l505.662 154.732z" stroke="#E3E4E5"/></svg>