<svg width="31" height="36" viewBox="0 0 31 36" fill="none" xmlns="http://www.w3.org/2000/svg">
<path d="M23.07 13.0424C25.29 14.6537 28.0097 15.6018 30.9471 15.6018V9.86272C30.3912 9.86284 29.8367 9.80398 29.2928 9.68699V14.2044C26.3557 14.2044 23.6364 13.2564 21.4157 11.6452V23.357C21.4157 29.2158 16.738 33.965 10.9681 33.965C8.81516 33.965 6.81412 33.3041 5.15186 32.1707C7.04905 34.1403 9.69484 35.3622 12.6219 35.3622C18.3922 35.3622 23.0702 30.613 23.0702 24.7539V13.0424H23.07ZM25.1107 7.25241C23.9761 5.99388 23.2312 4.36747 23.07 2.5694V1.83124H21.5024C21.897 4.11658 23.2429 6.06904 25.1107 7.25241ZM8.80135 27.6748C8.16746 26.8309 7.8249 25.7986 7.82644 24.7372C7.82644 22.0576 9.96601 19.8849 12.6057 19.8849C13.0976 19.8848 13.5866 19.9613 14.0554 20.1123V14.245C13.5075 14.1687 12.9546 14.1364 12.4019 14.1482V18.7151C11.9327 18.564 11.4435 18.4873 10.9514 18.4878C8.31177 18.4878 6.17232 20.6602 6.17232 23.3402C6.17232 25.2351 7.24175 26.8757 8.80135 27.6748Z" fill="#FF004F"/>
<path d="M21.4159 11.6451C23.6366 13.2563 26.3559 14.2043 29.293 14.2043V9.68687C27.6535 9.33229 26.2021 8.46239 25.1109 7.25241C23.2429 6.06892 21.8971 4.11646 21.5025 1.83124H17.3848V24.7537C17.3755 27.426 15.2396 29.5898 12.6056 29.5898C11.0534 29.5898 9.67449 28.8386 8.80118 27.6748C7.2417 26.8757 6.17226 25.235 6.17226 23.3403C6.17226 20.6606 8.31172 18.4879 10.9514 18.4879C11.4571 18.4879 11.9446 18.5679 12.4018 18.7152V14.1483C6.73323 14.2673 2.17432 18.97 2.17432 24.7538C2.17432 27.641 3.30959 30.2584 5.15216 32.1708C6.81442 33.3041 8.81546 33.9651 10.9684 33.9651C16.7384 33.9651 21.4161 29.2157 21.4161 23.357V11.6451H21.4159Z" fill="black"/>
<path d="M29.2928 9.68687V8.46539C27.8144 8.46766 26.365 8.04727 25.1107 7.25229C26.2211 8.4866 27.6832 9.33769 29.2928 9.68687ZM21.5024 1.83124C21.4647 1.61284 21.4358 1.39299 21.4158 1.17231V0.434143H15.7303V23.3568C15.7212 26.0288 13.5854 28.1926 10.9512 28.1926C10.1778 28.1926 9.44764 28.0062 8.801 27.675C9.67432 28.8386 11.0533 29.5897 12.6054 29.5897C15.2392 29.5897 17.3754 27.4261 17.3847 24.7538V1.83124H21.5024ZM12.4019 14.1484V12.848C11.9268 12.7821 11.4479 12.749 10.9683 12.7492C5.19776 12.7491 0.52002 17.4985 0.52002 23.3568C0.52002 27.0297 2.35845 30.2666 5.1521 32.1706C3.30953 30.2583 2.17426 27.6408 2.17426 24.7537C2.17426 18.97 6.73306 14.2673 12.4019 14.1484Z" fill="#00F2EA"/>
</svg>
