<svg width="165" height="171" viewBox="0 0 165 171" fill="none" xmlns="http://www.w3.org/2000/svg">
<rect x="0.532593" y="0.0146484" width="163.802" height="170.81" rx="19" fill="white"/>
<g clip-path="url(#clip0_306_3375)">
<path d="M93.5538 86.4484C93.5538 83.2882 92.1449 80.4961 87.3799 80.4961C84.9352 80.4961 82.9932 81.1651 81.9402 81.7507L82.712 84.286C83.6814 83.7021 85.2282 83.2212 86.6882 83.2212C89.1005 83.2179 89.4958 84.5281 89.4958 85.3705V85.5733C84.2299 85.5651 80.9011 87.3121 80.9011 90.8697C80.9011 93.0435 82.5911 95.0816 85.5451 95.0816C87.3475 95.0816 88.8705 94.3832 89.7803 93.2807H89.8689C89.8689 93.2807 90.4686 95.6901 93.7855 94.7692C93.6168 93.76 93.5538 92.6968 93.5538 91.4046V86.4484ZM89.6253 89.7852C89.6253 90.0404 89.6032 90.3054 89.5248 90.5327C89.2215 91.506 88.1755 92.3206 86.8739 92.3206C85.7751 92.3206 84.913 91.7235 84.913 90.4722C84.913 88.5585 87.1141 88.0318 89.6253 88.0448" fill="#0071CE"/>
<path d="M12.9337 76.1963C12.9337 76.1963 16.3733 89.7072 16.9202 91.8957C17.5641 94.454 18.7175 95.3994 22.0464 94.7697L24.1963 86.3916C24.7398 84.3159 25.1094 82.8274 25.4604 80.7125H25.52C25.7636 82.8487 26.1146 84.3159 26.5592 86.3981C26.5592 86.3981 27.4365 90.2044 27.8915 92.1983C28.3344 94.1923 29.5814 95.4501 32.8473 94.7697L37.9649 76.1963H33.8336L32.0772 84.2308C31.6121 86.5584 31.1896 88.3921 30.8608 90.525H30.8012C30.5048 88.415 30.1283 86.6566 29.6445 84.3764L27.825 76.1963H23.5149L21.5727 84.1671C21.019 86.601 20.5012 88.5524 20.1757 90.6183H20.1195C19.7839 88.6799 19.3291 86.2117 18.8469 83.8694C18.8469 83.8694 17.6936 78.1624 17.2864 76.1963" fill="#0071CE"/>
<path d="M49.4781 86.4484C49.4781 83.2882 48.0657 80.4961 43.3007 80.4961C40.8629 80.4961 38.9173 81.1651 37.8645 81.7507L38.6362 84.286C39.6022 83.7021 41.1474 83.2212 42.6125 83.2212C45.0248 83.2179 45.42 84.5281 45.42 85.3705V85.5733C40.1542 85.5651 36.8219 87.3121 36.8219 90.8697C36.8219 93.0435 38.5187 95.0816 41.4591 95.0816C43.2785 95.0816 44.788 94.3832 45.6978 93.2807H45.7897C45.7897 93.2807 46.3928 95.6901 49.7063 94.7692C49.536 93.76 49.4781 92.6968 49.4781 91.4046V86.4484ZM45.5461 89.7852C45.5461 90.0404 45.524 90.3054 45.449 90.5327C45.1423 91.506 44.0963 92.3206 42.7914 92.3206C41.6993 92.3206 40.8339 91.7235 40.8339 90.4722C40.8339 88.5585 43.0349 88.0318 45.5461 88.0448" fill="#0071CE"/>
<path d="M51.6218 76.1963V94.7631H55.5537V90.826V76.1963H51.6218Z" fill="#0071CE"/>
<path d="M105.621 76.1963V89.8953C105.621 91.7861 105.991 93.1045 106.787 93.9125C107.485 94.6208 108.628 95.0821 109.989 95.0821C111.158 95.0821 112.301 94.8662 112.841 94.6781L112.794 91.7289C112.39 91.8189 111.928 91.8957 111.294 91.8957C109.952 91.8957 109.509 91.0795 109.509 89.3817V84.1376H112.933V80.5898H109.509V76.1963" fill="#0071CE"/>
<path d="M95.4587 80.8181V94.769H99.5235V87.6243C99.5235 87.2399 99.549 86.9078 99.6121 86.6003C99.9153 85.0938 101.106 84.1402 102.822 84.1402C103.3 84.1402 103.626 84.1909 103.987 84.2449V80.5875C103.684 80.5351 103.478 80.5073 103.105 80.5073C101.583 80.5073 99.8591 81.4348 99.1316 83.4549H99.0312V80.8181" fill="#0071CE"/>
<path d="M57.837 80.8181V94.769H61.7979V86.5807C61.7979 86.1963 61.8422 85.8037 61.9836 85.4488C62.3056 84.6195 63.1046 83.6593 64.3874 83.6593C65.9819 83.6593 66.735 84.9515 66.735 86.8162V94.769H70.6857V86.4825C70.6857 86.121 70.7385 85.6778 70.8491 85.3572C71.1661 84.4166 72.0315 83.6593 73.2275 83.6593C74.8391 83.6593 75.6194 84.9237 75.6194 87.1221V94.769H79.5666V86.5431C79.5666 82.2215 77.2769 80.5073 74.6772 80.5073C73.5341 80.5073 72.6244 80.7772 71.8066 81.2614C71.1149 81.6687 70.5085 82.2428 69.965 82.9936H69.9054C69.2802 81.492 67.8117 80.5073 65.8933 80.5073C63.4334 80.5073 62.3158 81.6997 61.6582 82.7073H61.5985V80.8181" fill="#0071CE"/>
<path d="M134.206 80.1921C134.983 80.1921 135.637 79.8029 135.722 79.3023L136.492 70.9275C136.492 70.0983 135.475 69.4194 134.206 69.4194C132.93 69.4194 131.92 70.0983 131.92 70.9275L132.697 79.3023C132.778 79.8029 133.429 80.1921 134.206 80.1921Z" fill="#FCB61A"/>
<path d="M129.481 82.8125C129.866 82.1583 129.844 81.432 129.429 81.1081L122.239 76.2812C121.491 75.8625 120.372 76.3614 119.732 77.418C119.093 78.473 119.222 79.6573 119.955 80.0678L127.914 83.6108C128.423 83.794 129.09 83.4537 129.481 82.806" fill="#FCB61A"/>
<path d="M138.93 82.806C139.337 83.4537 140.003 83.7939 140.499 83.6206L148.458 80.0678C149.197 79.6491 149.308 78.4763 148.683 77.4213C148.044 76.3646 146.918 75.869 146.172 76.2795L138.981 81.1016C138.582 81.4304 138.553 82.1599 138.938 82.8125" fill="#FCB61A"/>
<path d="M134.206 90.6533C134.983 90.6533 135.637 91.0426 135.722 91.5431L136.492 99.9179C136.492 100.747 135.475 101.419 134.206 101.419C132.93 101.419 131.92 100.747 131.92 99.9179L132.697 91.5431C132.778 91.0426 133.429 90.6533 134.206 90.6533Z" fill="#FCB61A"/>
<path d="M138.93 88.0401C139.337 87.3908 140.003 87.044 140.499 87.2321L148.458 90.7783C149.197 91.1889 149.308 92.3715 148.683 93.4281C148.044 94.4766 146.918 94.9755 146.172 94.5649L138.981 89.7364C138.582 89.4109 138.553 88.6846 138.938 88.0401" fill="#FCB61A"/>
<path d="M129.481 88.0327C129.866 88.6853 129.844 89.4099 129.429 89.7371L122.239 94.5575C121.491 94.9762 120.372 94.4757 119.732 93.4272C119.093 92.3722 119.222 91.188 119.955 90.7774L127.914 87.2312C128.423 87.0447 129.09 87.3882 129.481 88.0327Z" fill="#FCB61A"/>
<path d="M150.787 93.8299H150.886C151.021 93.8299 151.075 93.8708 151.09 93.9738C151.119 94.0883 151.135 94.1652 151.164 94.1979H151.419C151.397 94.1734 151.368 94.1112 151.353 93.9673C151.324 93.843 151.257 93.7727 151.164 93.7481V93.7252C151.293 93.6974 151.368 93.614 151.368 93.5109C151.368 93.4177 151.324 93.3506 151.279 93.3081C151.194 93.2689 151.113 93.2378 150.932 93.2378C150.772 93.2378 150.654 93.2509 150.561 93.2721V94.1979H150.787V93.8299ZM150.794 93.4079L150.91 93.3932C151.046 93.3932 151.119 93.4537 151.119 93.5388C151.119 93.6336 151.021 93.6778 150.895 93.6778H150.794V93.4079ZM150.939 92.7798C150.38 92.7798 149.937 93.1985 149.937 93.7121C149.937 94.2388 150.38 94.6576 150.939 94.6576C151.504 94.6576 151.934 94.2388 151.934 93.7121C151.934 93.1985 151.504 92.7798 150.939 92.7798ZM150.939 92.9679C151.368 92.9679 151.687 93.3016 151.687 93.7121C151.687 94.126 151.368 94.4695 150.939 94.4629C150.509 94.4629 150.184 94.126 150.184 93.7121C150.184 93.3016 150.509 92.9679 150.932 92.9679" fill="#FCB61A"/>
</g>
<defs>
<clipPath id="clip0_306_3375">
<rect width="139" height="32" fill="white" transform="translate(12.9337 69.4194)"/>
</clipPath>
</defs>
</svg>
