<svg version="1.1" id="Layer_1" xmlns="http://www.w3.org/2000/svg" x="0" y="0" viewBox="0 0 217.9 59.8" style="enable-background:new 0 0 217.9 59.8" xml:space="preserve"><style></style><linearGradient id="SVGID_1_" gradientUnits="userSpaceOnUse" x1="-.803" y1="-.272" x2="-.096" y2=".435"><stop offset="0" style="stop-color:#dedfe2"/><stop offset=".179" style="stop-color:#dadbde"/><stop offset=".363" style="stop-color:#cecfd2"/><stop offset=".548" style="stop-color:#b9bbbe"/><stop offset=".736" style="stop-color:#9c9fa1"/><stop offset=".922" style="stop-color:#787c7d"/><stop offset="1" style="stop-color:#666b6c"/></linearGradient><path d="M26 24.5H4v19.2h25.3V47H0V0h29.1v3.4H4v17.8h22v3.3zM50.6 26.2 60 12h4.6L52.8 29.2 65.2 47h-4.6l-9.9-14.8-10 14.8h-4.6l12.3-17.8-11.7-17.1h4.6l9.3 14.1zM101.1 29.3c0 5.4-1.2 9.8-3.6 13S91.8 47 87.8 47c-4.8 0-8.4-1.7-11-5v17.8H73V11.4h3.6l.2 4.9c2.5-3.7 6.2-5.6 10.9-5.6 4.2 0 7.5 1.6 9.8 4.7 2.4 3.2 3.6 7.6 3.6 13.2v.7zm-3.9-.7c0-4.5-.9-8-2.7-10.6-1.8-2.6-4.4-3.9-7.6-3.9-2.4 0-4.4.6-6.1 1.7s-3 2.8-3.9 5v16.8c.9 2 2.2 3.5 4 4.6s3.8 1.6 6.1 1.6c3.2 0 5.8-1.3 7.6-3.9 1.7-2.6 2.6-6.4 2.6-11.3zM123.4 47c-3 0-5.7-.7-8.1-2.2-2.4-1.5-4.3-3.5-5.6-6.1-1.3-2.6-2-5.5-2-8.8v-1.4c0-3.4.7-6.4 2-9.1 1.3-2.7 3.1-4.8 5.4-6.3 2.3-1.5 4.8-2.3 7.6-2.3 4.2 0 7.6 1.4 10.1 4.3s3.7 6.8 3.7 11.9v2.2h-24.9v.7c0 4 1.1 7.3 3.4 9.9 2.3 2.6 5.1 4 8.6 4 2.1 0 3.9-.4 5.5-1.1 1.6-.8 3-2 4.3-3.6l2.4 1.8c-2.9 4.1-7 6.1-12.4 6.1zm-.7-32.9c-2.9 0-5.4 1.1-7.3 3.2s-3.2 5-3.6 8.6h20.9v-.4c-.1-3.4-1.1-6.1-2.9-8.2-1.8-2.2-4.2-3.2-7.1-3.2zM162 15.4c-.8-.2-1.7-.2-2.6-.2-2.4 0-4.4.7-6.1 2-1.7 1.3-2.9 3.3-3.6 5.9v24h-3.8v-35h3.8l.1 5.6c2-4.1 5.3-6.2 9.8-6.2 1.1 0 1.9.1 2.5.4l-.1 3.5zM178.3 2.5v8.9h7.2v3.2h-7.2v23.3c0 1.9.3 3.4 1 4.3s1.9 1.4 3.5 1.4c.6 0 1.7-.1 3.1-.3l.2 3.1c-1 .4-2.4.5-4.1.5-2.6 0-4.6-.8-5.8-2.3s-1.8-3.8-1.8-6.8V14.6H168v-3.2h6.4V2.5h3.9zM214 37.5c0-1.9-.8-3.5-2.3-4.6s-3.9-2.1-7-2.7c-3.1-.7-5.5-1.4-7.2-2.3-1.7-.8-3-1.9-3.8-3.1-.8-1.2-1.2-2.7-1.2-4.5 0-2.8 1.2-5 3.5-6.8 2.3-1.8 5.2-2.7 8.8-2.7 3.9 0 7 1 9.4 2.9s3.5 4.4 3.5 7.5h-3.9c0-2-.9-3.7-2.6-5.1-1.7-1.4-3.9-2-6.5-2-2.5 0-4.6.6-6.1 1.7s-2.3 2.6-2.3 4.4c0 1.7.6 3.1 1.9 4.1 1.3 1 3.6 1.8 7 2.6s5.9 1.6 7.6 2.5 2.9 2 3.8 3.3c.8 1.3 1.2 2.8 1.2 4.6 0 2.9-1.2 5.3-3.6 7.1-2.4 1.8-5.5 2.6-9.3 2.6-4.1 0-7.4-1-9.9-3s-3.8-4.5-3.8-7.5h3.9c.2 2.3 1.1 4 2.9 5.3s4.1 1.9 7 1.9c2.7 0 4.9-.6 6.5-1.8 1.7-1.1 2.5-2.6 2.5-4.4z"/></svg>