<svg width="23" height="35" fill="none" xmlns="http://www.w3.org/2000/svg"><path d="M21.817 7.5c-.7.3-2.2 1-2.9 1.3-.3.2-.5.6-.4.9.1.4.5.5.9.4.7-.3 2.2-.8 3-1.1.4-.2.7-.7.5-1.1-.1-.4-.6-.6-1.1-.4zM11.218 4.7c.4 0 .7-.3.7-.7 0-.8.1-2.4.1-3.1 0-.5-.4-.9-.8-.9s-.9.4-.8.9c0 .8.1 2.4.1 3.1 0 .4.3.7.7.7zM15.717 6.1c.3.2.7.1 1-.2.4-.6 1.3-1.9 1.8-2.5.3-.4.2-.9-.2-1.2-.4-.3-1-.1-1.2.3-.4.7-1.2 2-1.6 2.7-.2.2-.1.7.2.9zM6.419 11.3s.2-.8.3-1c.7-2.4.6-4.5-.3-5.6-.3-.5-.7-.7-1.2-.7-.2 0-.9-.1-1.2 1.4-.1.4-1.7 6.3-2.9 10.8 0 0 1.1-1.5 1.5-2 1-1.6 1.9-2.9 3.8-2.9zM10.718 11.3h4.5s-.2-.4-.4-.7c-.3-.5-1.1-1.6-1.8-2.2-.8-.6-1.7-.9-2.4-.5-.8.4-.8 1.2-.5 2 0 .3.4 1.2.6 1.4zM.32 20.9s2.6-3.6 3.5-4.8c.799-1.1 1.399-2 2.599-2.2 1.1-.2 2 .5 3.1 1.3.1.1.9.6 1.899 1.4h1.3c2.5 0 4.5-.6 5.399-1.7.3-.4.5-.9.3-1.3-.1-.2-.2-.9-1.7-.9H6.62c-1.3 0-1.7.6-3 2.3-.8 1.1-2.3 3.2-3.1 4.2-.3.5-.6.8-.5 1.2 0 .2.1.4.3.5z" fill="#3A391A"/><path d="M3.22 20.6c.799-1.1 1.399-2 2.599-2.2 1.1-.2 2 .5 3.1 1.3.6.4 1.8 1.3 2.399 1.7.9.7 1.3 1.4 1.4 2 .9.3 1.7.3 2.3.2.5-.1.9-.4 1.1-.9.1-.2.4-.8-.8-1.7l-6.6-4.8c-1-.8-1.6-1.1-2.1-1-.6.1-.9.6-1.7 1.6-1.099 1.5-3.299 4.5-4.298 6-.3.5-.6.8-.5 1.2 0 .2.1.4.3.5-.1.1 2.1-2.9 2.8-3.9z" fill="#3A391A"/><path d="M17.617 16.9c-1.1.6-2.7 1-4.4 1 1.3 1 2.6 1.9 2.9 2.1 1.8 1.3 1.6 2.6 1.3 3.3-.3.8-1 1.4-1.9 1.6-.5.1-.9.1-1.3.1-.5 0-1.1-.1-1.7-.3-.299.7-.899 1.2-1.599 1.5-1.2.5-2.8.3-4.6-.5-.3-.2-.4-.6-.3-.9.2-.3.6-.5.9-.3 1.4.6 2.7.8 3.5.5.4-.2.7-.4.9-.8.1-.2.4-.8-.8-1.7-.6-.4-1.8-1.3-2.4-1.7-1-.8-1.6-1.1-2.1-1-.6.1-.899.6-1.699 1.6-.9 1.3-2.8 3.8-3.7 5.1-.3.4-.3.6-.3.9 0 .4.2.7.5 1 1.3 1.2 4.4 3.3 6.6 4.7 1.2.7 2.7 1.4 4.799 1.4 4.8 0 8.699-3.9 8.599-8.7 0-1.3-.3-2.5-.8-3.6-.4-.6-2.2-4.9-2.4-5.3z" fill="#3A391A"/></svg>